<svg width="627" height="394" viewBox="0 0 627 394" fill="none" xmlns="http://www.w3.org/2000/svg">
<g filter="url(#filter0_f_86_2619)">
<path d="M15 203.698C14.994 193.215 15.7556 182.745 17.2785 172.373C17.2785 168.609 27.6667 128.192 41.3374 100.959C42.9467 98.159 44.892 95.5664 47.13 93.2382C50.7215 89.2428 52.9227 88.2392 57.7692 89.6096C62.6157 90.9799 68.6594 98.739 67.0182 104.857C64.0253 116.94 62.5771 122.653 59.6229 134.735C58.0395 141.356 57.0355 141.761 57.132 148.748C57.2672 161.332 67.8871 171.639 79.9165 169.227C94.0892 166.409 99.2254 155.195 101.851 143.074C105.173 127.633 107.026 111.478 109.131 95.5543C110.347 86.2898 110.251 76.6778 111.757 67.5484C112.726 61.9551 114.807 56.6128 117.878 51.8374C119.306 49.5607 121.512 47.8795 124.087 47.1056C126.661 46.3318 129.429 46.518 131.877 47.6297C136.376 49.3089 140.508 57.7049 139.909 63.0706C138.693 73.551 137.283 84.0316 136.047 94.5699C135.333 101.827 139.272 109.644 144.234 111.13C152.132 113.543 163.176 109.644 165.339 102.792C169.201 90.4781 172.155 77.7008 175.978 65.4639C177.589 60.264 179.978 55.3379 183.065 50.853C184.281 49.0966 189.282 47.8227 190.788 48.9229C193.636 51.1631 195.671 54.2751 196.581 57.7821C197.461 62.5278 197.552 67.386 196.851 72.1614C194.804 86.3284 191.947 100.36 190.17 114.624C187.583 134.6 185.536 154.789 183.586 174.862C183.41 179.029 183.735 183.202 184.551 187.292C185.594 193.507 187.351 200.687 194.302 202.965C201.562 205.32 209.151 206.053 215.291 200.147C223.555 192.156 226.143 181.618 227.765 170.906C230.217 154.789 231.221 138.268 232.901 121.939C234.349 107.907 235.759 93.933 237.535 80.0362C238.771 71.2349 242.632 63.5145 249.912 58.4383C255.705 54.2693 265.803 58.4383 267.02 66.1587C268.396 74.453 268.597 82.8997 267.618 91.2502C265.977 105.533 262.25 119.333 260.764 133.597C259.765 145.326 259.655 157.114 260.435 168.86C260.764 174.998 264.49 179.842 271.885 181.985C278.199 183.799 281.965 182.351 285.826 178.124C293.55 169.69 294.091 158.437 296.002 147.764C298.049 136.183 298.397 124.197 299.671 112.404C298.628 95.342 300.54 78.357 304.633 72.3737C308.341 66.9115 321.838 64.6533 325.777 75.9058C327.945 81.2737 329.588 86.8391 330.681 92.524C332.824 101.653 334.33 110.995 338.231 119.546C345.221 135.392 364.24 133.886 374.107 128.81C391.485 119.777 386.445 105.108 382.738 93.4891C379.03 81.8698 376.327 73.1071 378.683 64.9428C380.865 57.4539 397.451 51.0074 406.159 60.9475C414.868 70.8875 423.016 93.7593 427.399 105.88C433.192 122.132 445.974 146.914 453.679 154.809C464.858 166.254 472.987 163.031 483.24 153.458C494.594 142.919 485.384 123.676 474.841 110.107C437.845 65.1551 430.662 62.1248 428.036 49.1931C425.932 36.0297 437.845 29.5253 443.329 27.2092C451.864 23.7157 461.537 35.4314 465.862 41.8394C477.448 54.636 480.383 61.2563 507.126 78.9554C538.831 100.032 552.598 88.9919 552.772 69.6137C552.772 60.4456 536.417 48.0544 529.427 30.6641C526.57 23.5806 538.464 9.43288 548.466 17.327C565.67 35.6052 555.224 34.8331 582.507 61.0247C586.312 64.6516 590.609 67.725 595.271 70.1541C612.262 79.0133 611.664 81.1943 611.992 86.6372C612.095 89.7345 611.188 92.7811 609.408 95.3187C607.629 97.8563 605.073 99.7475 602.125 100.708C598.457 102.329 591.814 99.9743 584.323 91.945C581.6 89.0885 575.653 77.6815 563.797 88.8954C559.723 99.4338 561.171 99.9357 567.215 107.695C573.973 116.361 592.587 131.435 595.676 141.915C597.144 147.088 593.745 154.5 589.015 156.044C583.975 157.627 584.419 158.128 580.055 157.395C566.674 151.605 559.028 138.094 550.764 125.625C544.681 116.496 526.531 102.155 522.476 111.15C518.421 120.144 526.473 123.676 531.165 132.612C538.29 141.143 542.924 146.123 546.496 149.868C552.868 156.623 579.746 178.414 564.763 195.476C557.908 206.651 538.657 207.732 534.235 202.251C527.342 196.943 521.53 189.454 512.397 194.53C502.916 200.977 508.805 207.906 510.717 215.897C520.893 243.362 485.152 268.009 468.72 240.274C461.46 226.975 431.57 170.462 422.224 156.295C420.183 152.828 417.287 149.943 413.811 147.916C410.336 145.888 406.398 144.786 402.375 144.714C394.555 144.714 383.838 152.84 382.892 162.413C381.116 182.062 392.547 198.68 402.201 215.8C413.96 236.896 424.406 252.472 434.621 273.935C440.413 286.23 443.059 300.088 434.292 311.34C428.674 318.52 421.819 324.06 411.469 323.056C399.652 321.956 392.836 312.518 388.53 303.543C378.084 281.655 371.963 264.323 362.328 242.204C356.111 227.96 350.164 213.619 342.884 199.742C339.787 194.068 335.148 189.384 329.503 186.231C320.042 181.29 311.333 184.069 304.402 192.021C303.42 193.196 302.499 194.42 301.64 195.688C292.778 205.995 294.824 218.483 300.405 230.874C309.538 250.889 325.506 297.83 334.33 317.98C340.973 332.996 343.328 348.746 333.925 361.33C325.989 372.139 314.616 376.771 298.956 378.701C277.215 381.345 267.135 365.769 262.945 358.416C256.863 347.704 255.222 341.759 251.36 323.674C249.815 315.953 239.099 257.722 228.981 246.682C217.724 234.522 202.045 237.379 196.156 246.682C189.533 257.162 190.247 269.554 189.668 281.713C189.031 295.745 189.07 310.047 186.482 323.577C184.204 335.158 172.174 336.181 160.319 328.692C155.467 325.812 151.418 321.759 148.543 316.906C145.669 312.053 144.061 306.555 143.868 300.918C143.056 290.767 143.452 280.557 145.045 270.499C148.367 249.616 153.638 229.156 156.457 208.138C158.002 197.059 159.952 185.71 154.777 173.396C152.433 168.282 148.398 164.131 143.352 161.642C138.305 159.154 132.555 158.478 127.069 159.73C112.761 162.954 107.548 173.241 104.728 185.517C102.141 196.731 100.229 208.118 98.6847 219.66C97.3717 229.137 97.9124 239.135 96.0201 248.38C94.6106 255.56 96.0201 264.728 86.6939 268.222C83.199 269.496 81.1137 269.032 78.5649 265.964C70.8413 256.603 71.4013 246.064 69.9917 235.95C68.5436 224.833 68.4084 213.716 66.13 202.733C65.2611 198.603 64.759 191.654 56.8617 190.882C52.4593 190.477 45.9136 196.152 44.6392 201.093C41.7428 212.48 38.8465 223.829 35.2937 234.87C34.5213 237.456 31.4319 240.814 29.3465 240.544C26.7591 240.216 23.2642 236.993 21.623 234.31C15.5021 224.524 15 213.851 15 203.698Z" fill="#FF968D" fill-opacity="0.04"/>
</g>
<defs>
<filter id="filter0_f_86_2619" x="0" y="0" width="627" height="394" filterUnits="userSpaceOnUse" color-interpolation-filters="sRGB">
<feFlood flood-opacity="0" result="BackgroundImageFix"/>
<feBlend mode="normal" in="SourceGraphic" in2="BackgroundImageFix" result="shape"/>
<feGaussianBlur stdDeviation="7.5" result="effect1_foregroundBlur_86_2619"/>
</filter>
</defs>
</svg>
