<svg width="28" height="24" viewBox="0 0 28 24" fill="none" xmlns="http://www.w3.org/2000/svg">
<path d="M17.1079 24.0001H26.7558C27.443 24.0001 28.0002 23.4479 28.0002 22.7669V13.2035C28.0002 12.5225 27.443 11.9703 26.7558 11.9703H20.2725C20.3236 8.37679 22.8233 5.36133 26.1905 4.49409C26.4173 4.43582 26.8818 4.34826 26.8818 4.34826C26.8818 4.34826 26.8793 4.3424 26.8787 4.34148C27.508 4.28013 28.0002 3.75633 28.0002 3.11692V1.23753C28.0002 0.556504 27.443 0.0043416 26.7558 0.0043416C26.7558 0.0043416 26.4926 -0.00367423 26.4055 0.00341663C26.0169 0.0357879 25.8952 0.0848075 25.6445 0.13691C20.0999 1.29118 15.9167 6.14965 15.8635 11.9703H15.8604L15.8635 22.7669C15.8635 23.4479 16.4207 24.0001 17.1079 24.0001Z" fill="white"/>
<path d="M0.00311118 22.7668C0.00311118 23.4478 0.560311 24 1.24756 24H10.8951C11.5824 24 12.1396 23.4478 12.1396 22.7668V13.2034C12.1396 12.5224 11.5824 11.9702 10.8951 11.9702H4.41218C4.4632 8.37638 6.96298 5.36091 10.3298 4.49398C10.5566 4.43571 11.0214 4.34815 11.0214 4.34815C11.0214 4.34815 11.0189 4.34199 11.0183 4.34106C11.6471 4.27971 12.1396 3.75591 12.1396 3.11619V1.23681C12.1396 0.555778 11.5824 0.00361577 10.8951 0.00361577C10.8951 0.00361577 10.6319 -0.00409164 10.5451 0.00299922C10.1562 0.0353705 10.0349 0.0843897 9.78413 0.136184C4.23951 1.29076 0.0560001 6.14923 0.00311118 11.9705H0L0.00311118 22.7668Z" fill="white"/>
</svg>
